<svg width="48" height="48" viewBox="0 0 48 48" fill="none" xmlns="http://www.w3.org/2000/svg">
<circle cx="24" cy="24" r="23.5" fill="#C2DAF2" stroke="#3A80FE"/>
<path d="M29.9893 22.1086C30.1756 22.1946 30.3155 22.2443 30.4493 22.3117C31.7713 22.8607 33.0758 23.4034 34.3978 23.9524C34.8289 24.1253 34.8995 24.4886 34.6012 24.8401C34.5058 24.9455 34.4165 25.0331 34.3098 25.1146C32.3982 26.7232 30.3215 28.0146 28.0621 28.9826C26.1571 29.778 24.314 30.7348 22.4998 31.7216C21.4833 32.2757 20.4555 32.8058 19.4102 33.3297C18.4358 33.819 17.4893 34.398 16.5891 35.0133C15.6478 35.6337 14.655 36.1763 13.6621 36.7187C13.3962 36.863 13.0787 36.9294 12.7735 36.9603C12.5155 36.9681 12.1998 36.9157 11.9673 36.7933C11.2119 36.3659 11.0469 35.651 11.5676 34.9408C11.9028 34.4829 12.3245 34.1155 12.7234 33.7002C12.8722 33.5541 13.0384 33.4143 13.1696 33.2619C15.3107 30.8199 17.4405 28.3539 19.5816 25.9118C20.8285 24.465 22.0631 23.0535 23.3265 21.6722C25.5787 19.2497 28.2878 17.606 31.4374 16.6756C31.9377 16.535 32.4319 16.4121 32.9498 16.2777C32.6018 16.0348 32.4322 16.0144 32.3052 16.2677C32.1128 16.1994 31.9205 16.1311 31.7282 16.0628C31.5533 16.0007 31.3959 15.9448 31.3286 15.7419C31.3006 15.6524 31.1731 15.5673 31.0794 15.554C30.6999 15.459 30.2968 15.3755 29.9173 15.2806C29.7888 15.2548 29.6602 15.2291 29.5378 15.1856C29.398 15.1359 29.1513 15.1677 29.1724 14.9365C29.1883 14.6637 29.4401 14.6736 29.6273 14.7002C30.1598 14.7501 30.6923 14.8 31.2127 14.8852C32.6625 15.1216 34.1657 15.3172 35.618 15.7732C36.0264 15.8983 36.4225 16.0588 36.8187 16.2193C37.2961 16.4286 37.4026 16.7449 37.2309 17.2409C37.1205 17.5598 36.9413 17.7944 36.6805 17.9803C36.2126 18.3114 35.7619 18.6487 35.2887 18.9381C33.6801 19.8985 32.0599 20.8349 30.4512 21.7953C30.3033 21.882 30.173 21.975 29.9893 22.1086Z" fill="#55BBDA"/>
<path d="M24.9762 23.0259C26.3272 23.4218 27.6782 23.8178 29.0108 24.2072C29.4589 24.3454 29.9006 24.5022 30.3488 24.6404C30.6249 24.7384 30.8632 24.8859 30.92 25.1991C30.9706 25.5311 30.8186 25.7911 30.5506 25.9681C30.3259 26.1396 30.0709 26.2793 29.8224 26.4004C24.1145 29.3978 18.4608 32.4773 12.969 35.8654C12.633 36.0602 12.2969 36.2548 11.9425 36.443C11.7059 36.5893 11.4518 36.6665 11.196 36.4501C10.9587 36.2402 10.9689 35.9717 11.0592 35.7108C11.3034 35.0647 11.5661 34.4252 11.8471 33.7923C12.4146 32.5704 13.007 31.3362 13.5746 30.1143C14.2121 28.7497 14.8064 27.3907 15.4624 26.0326C16.1377 24.6186 16.8618 23.2429 17.5675 21.8606C17.8853 21.2408 18.1847 20.6144 18.5155 19.9573C18.313 19.8854 18.129 19.8201 17.9633 19.7613C17.4047 19.5839 16.8213 19.4186 16.2691 19.2225C15.5881 18.9807 15.4898 18.5481 15.9669 18.0057C16.268 17.673 16.5875 17.3469 16.9255 17.0272C17.3757 16.6219 17.8628 16.2296 18.325 15.8495C19.6933 14.7024 21.08 13.562 22.4298 12.4084C22.9169 12.0162 23.3689 11.9045 23.9275 12.0819C24.8238 12.3583 25.7266 12.616 26.623 12.8924C28.6614 13.5116 30.7182 14.1372 32.7501 14.7749C33.2904 14.9458 33.8241 15.1353 34.3394 15.3183C34.5234 15.3837 34.6891 15.4425 34.8603 15.5451C35.4538 15.8605 35.5575 16.337 35.0935 16.8421C34.8862 17.0825 34.6367 17.266 34.3808 17.4682C32.6904 18.7102 30.8794 19.7628 29.0565 20.7903C27.8559 21.4526 26.6131 22.058 25.3822 22.6886C25.2331 22.7612 25.084 22.8339 24.9468 22.9317C24.9587 22.9569 24.9707 22.982 24.9762 23.0259Z" fill="#FBE8DE"/>
<path d="M18.5513 19.9704C18.3305 19.892 18.1648 19.8332 17.9808 19.7678C17.4286 19.5718 16.8451 19.4065 16.293 19.2104C15.6488 18.9817 15.5321 18.5425 15.9843 18.0122C16.2606 17.6917 16.5737 17.3842 16.9051 17.0832C17.3803 16.6657 17.8674 16.2735 18.336 15.8747C19.7291 14.7155 21.1158 13.5751 22.4721 12.4029C22.9159 12.0162 23.3863 11.911 23.9449 12.0885C24.8229 12.3583 25.7072 12.6095 26.5852 12.8794C28.6421 13.505 30.6924 14.1493 32.7676 14.7815C33.2894 14.9458 33.8046 15.1288 34.3201 15.3118C34.4673 15.3641 34.6145 15.4164 34.7552 15.4873C35.5026 15.8363 35.6172 16.4004 34.9921 16.953C34.4793 17.4198 33.8992 17.8419 33.3137 18.2201C30.9842 19.6958 28.631 21.1211 26.1518 22.3132C25.7541 22.507 25.3748 22.7072 24.9274 22.9252C25.128 23.122 25.3562 23.1193 25.5403 23.1847C27.0569 23.6394 28.5919 24.1007 30.1085 24.5555C30.2374 24.6012 30.3726 24.6283 30.5135 24.6993C30.9911 24.9316 31.1068 25.4333 30.7246 25.8209C30.5119 26.0175 30.2504 26.1759 29.9954 26.3156C27.993 27.384 25.9906 28.4524 23.9883 29.5209C20.4558 31.4276 16.9711 33.435 13.5342 35.5431C13.061 35.8357 12.5694 36.1216 12.0842 36.389C11.9783 36.4561 11.854 36.5165 11.7427 36.5399C11.3523 36.6525 11.0349 36.4352 11.0535 36.023C11.0757 35.7796 11.1412 35.5308 11.2435 35.295C11.9078 33.7934 12.5905 32.2982 13.2668 30.8218C14.0195 29.1841 14.7474 27.5585 15.5369 25.9339C16.1994 24.5572 16.917 23.2001 17.6098 21.8551C17.9276 21.2353 18.227 20.6089 18.5513 19.9704ZM12.407 35.0383C12.4373 35.0699 12.4677 35.1016 12.5045 35.1147C17.9475 31.6884 23.6251 28.6591 29.2926 25.48C28.906 25.3427 28.6181 25.2195 28.3172 25.1336C26.8677 24.7236 25.4302 24.3388 23.9808 23.9288C23.8271 23.8952 23.6798 23.8429 23.539 23.772C22.9943 23.4948 22.9283 22.969 23.385 22.545C23.5912 22.367 23.8463 22.2273 24.1013 22.0876C25.5688 21.3107 27.0721 20.6094 28.5156 19.7822C30.2705 18.7724 31.9526 17.6741 33.665 16.6074C33.7958 16.5282 33.921 16.4052 34.1392 16.2524C33.6791 16.089 33.3359 15.9462 32.9796 15.8407C29.9345 14.906 26.8893 13.9713 23.8506 13.0179C23.5865 12.9451 23.4373 13.0177 23.2624 13.165C21.8941 14.312 20.5259 15.459 19.1576 16.606C18.6328 17.0476 18.1079 17.4893 17.5831 17.931C17.4643 18.0353 17.3391 18.1583 17.1761 18.3307C17.3969 18.4092 17.5626 18.468 17.7098 18.5203C18.25 18.6911 18.7967 18.8434 19.3056 19.045C19.7776 19.2335 19.8898 19.5664 19.6668 20.0315C19.3167 20.7446 18.9418 21.4698 18.5733 22.1763C17.804 23.6825 17.0228 25.1636 16.2904 26.6829C15.1692 29.0271 14.0912 31.3657 13.0013 33.6792C12.8032 34.1321 12.6051 34.5852 12.407 35.0383Z" fill="black"/>
</svg>
