<svg width="31" height="29" viewBox="0 0 31 29" fill="none" xmlns="http://www.w3.org/2000/svg">
<path d="M22.2677 11.79C22.4806 11.8861 22.6404 11.9415 22.7934 12.0168C24.3042 12.6298 25.7951 13.2358 27.306 13.8488C27.7986 14.0419 27.8793 14.4475 27.5384 14.84C27.4293 14.9577 27.3273 15.0556 27.2053 15.1465C25.0207 16.9427 22.6472 18.3847 20.0651 19.4657C17.8879 20.3538 15.7816 21.4222 13.7082 22.5241C12.5465 23.1427 11.3719 23.7347 10.1772 24.3197C9.06358 24.8661 7.98186 25.5126 6.95309 26.1996C5.87735 26.8923 4.74268 27.4982 3.608 28.1039C3.30408 28.2651 2.94126 28.3392 2.59244 28.3736C2.29759 28.3824 1.93682 28.3238 1.67102 28.1872C0.807725 27.71 0.619212 26.9116 1.21426 26.1187C1.5973 25.6074 2.07923 25.1971 2.53522 24.7334C2.7052 24.5703 2.89517 24.4141 3.04517 24.244C5.49214 21.5172 7.92615 18.7636 10.3731 16.0367C11.7981 14.4211 13.2091 12.8451 14.6531 11.3027C17.227 8.59765 20.3231 6.76228 23.9226 5.72339C24.4944 5.56638 25.0591 5.42916 25.651 5.2791C25.2533 5.00787 25.0595 4.98505 24.9144 5.26786C24.6944 5.1916 24.4747 5.11533 24.2549 5.03907C24.055 4.96973 23.8751 4.90733 23.7982 4.68078C23.7662 4.58087 23.6205 4.48584 23.5135 4.47094C23.0797 4.3649 22.6191 4.2717 22.1854 4.16566C22.0384 4.13691 21.8915 4.10815 21.7516 4.05961C21.5918 4.00416 21.3099 4.03963 21.334 3.78148C21.3521 3.47683 21.6399 3.48784 21.8539 3.51762C22.4625 3.57329 23.0711 3.62898 23.6658 3.72421C25.3228 3.98811 27.0407 4.20653 28.7005 4.71573C29.1672 4.85542 29.6198 5.03466 30.0727 5.21391C30.6183 5.44761 30.74 5.80079 30.5438 6.35462C30.4176 6.71065 30.2127 6.97267 29.9147 7.18024C29.3799 7.54994 28.8649 7.92655 28.3241 8.24974C26.4856 9.32209 24.6341 10.3677 22.7956 11.4401C22.6265 11.5369 22.4776 11.6407 22.2677 11.79Z" fill="#55BBDA"/>
<path d="M16.5372 12.8149C18.0812 13.257 19.6253 13.6991 21.1482 14.134C21.6604 14.2883 22.1651 14.4634 22.6773 14.6177C22.9929 14.7272 23.2652 14.8918 23.3302 15.2416C23.388 15.6122 23.2143 15.9026 22.908 16.1003C22.6512 16.2917 22.3598 16.4477 22.0758 16.5829C15.5524 19.9299 9.09109 23.3686 2.81474 27.1518C2.4307 27.3693 2.04664 27.5866 1.64157 27.7967C1.37116 27.9601 1.08078 28.0463 0.788481 27.8047C0.517205 27.5703 0.52892 27.2705 0.632145 26.9791C0.911244 26.2577 1.21138 25.5436 1.53255 24.8369C2.18116 23.4725 2.85819 22.0944 3.50682 20.73C4.23546 19.2063 4.91466 17.6887 5.66433 16.1723C6.43613 14.5934 7.26366 13.0572 8.07014 11.5138C8.43338 10.8216 8.77557 10.1222 9.15356 9.38848C8.92219 9.30821 8.71184 9.23523 8.52253 9.16956C7.88414 8.97147 7.21731 8.78689 6.58629 8.56797C5.80803 8.29798 5.6957 7.81489 6.24087 7.20926C6.58502 6.83776 6.9502 6.47358 7.33642 6.11669C7.85101 5.66407 8.40767 5.22605 8.93594 4.80156C10.4996 3.52078 12.0844 2.2473 13.6271 0.959217C14.1838 0.521218 14.7003 0.396531 15.3387 0.594636C16.3631 0.903267 17.3949 1.19106 18.4193 1.49969C20.7489 2.19101 23.0996 2.8896 25.4217 3.60173C26.0392 3.79253 26.6492 4.00416 27.238 4.20848C27.4484 4.28144 27.6377 4.34711 27.8334 4.46172C28.5116 4.81391 28.6301 5.34594 28.0998 5.90992C27.8629 6.1784 27.5778 6.38335 27.2853 6.60913C25.3535 7.99592 23.2837 9.17131 21.2005 10.3186C19.8283 11.0581 18.408 11.7341 17.0013 12.4382C16.8309 12.5194 16.6604 12.6005 16.5036 12.7097C16.5173 12.7378 16.531 12.7659 16.5372 12.8149Z" fill="#F9F871"/>
<path d="M9.1948 9.40302C8.9424 9.31544 8.75308 9.24977 8.54274 9.17681C7.91172 8.95789 7.24489 8.77331 6.61387 8.55439C5.87767 8.299 5.74431 7.8086 6.26108 7.21649C6.57682 6.85853 6.93463 6.51516 7.31346 6.17908C7.85647 5.71296 8.41313 5.27494 8.94876 4.82963C10.5409 3.53533 12.1257 2.26185 13.6757 0.952949C14.1829 0.521165 14.7205 0.403767 15.3589 0.601873C16.3623 0.903214 17.373 1.18372 18.3764 1.48506C20.7271 2.18365 23.0703 2.90307 25.442 3.60897C26.0383 3.79247 26.6272 3.99679 27.2163 4.20111C27.3845 4.25949 27.5528 4.31787 27.7136 4.39707C28.5677 4.78682 28.6987 5.41671 27.9843 6.0337C27.3982 6.55499 26.7352 7.02626 26.0661 7.44862C23.4038 9.09637 20.7144 10.6879 17.8811 12.0191C17.4266 12.2354 16.9931 12.459 16.4818 12.7024C16.711 12.9221 16.9718 12.9191 17.1822 12.9921C18.9155 13.4999 20.6697 14.015 22.403 14.5228C22.5503 14.5739 22.7049 14.6042 22.8659 14.6834C23.4117 14.9428 23.5439 15.503 23.1072 15.9358C22.8641 16.1554 22.5652 16.3322 22.2738 16.4882C19.9853 17.6812 17.6969 18.8742 15.4085 20.0673C11.3713 22.1963 7.38883 24.4379 3.461 26.7918C2.92016 27.1185 2.35831 27.4378 1.80381 27.7363C1.68281 27.8112 1.54076 27.8788 1.41349 27.9049C0.967416 28.0305 0.60463 27.7879 0.625889 27.3276C0.651266 27.0559 0.726083 26.7781 0.84297 26.5148C1.60218 24.8381 2.38244 23.1685 3.15533 21.5199C4.01561 19.6912 4.84747 17.876 5.74981 16.0619C6.50686 14.5247 7.32701 13.0093 8.11875 11.5075C8.482 10.8154 8.8242 10.116 9.1948 9.40302ZM2.17269 26.2281C2.20739 26.2634 2.24208 26.2989 2.28417 26.3134C8.50479 22.4875 14.9934 19.105 21.4705 15.5551C21.0288 15.4018 20.6997 15.2643 20.3558 15.1683C18.6992 14.7105 17.0564 14.2808 15.3999 13.8231C15.2242 13.7855 15.056 13.7271 14.8951 13.6479C14.2725 13.3384 14.197 12.7513 14.719 12.2778C14.9547 12.0791 15.2462 11.9231 15.5376 11.7671C17.2148 10.8997 18.9329 10.1166 20.5826 9.19289C22.5881 8.06534 24.5105 6.83887 26.4676 5.6478C26.6171 5.55939 26.7602 5.42203 27.0096 5.25143C26.4837 5.069 26.0914 4.90954 25.6843 4.7917C22.2041 3.748 18.724 2.70427 15.2511 1.63975C14.9493 1.5584 14.7788 1.63951 14.5789 1.80391C13.0152 3.08468 11.4514 4.36546 9.88771 5.64625C9.28788 6.1394 8.68807 6.63258 8.08826 7.12575C7.95251 7.24229 7.80938 7.37962 7.62312 7.57213C7.87551 7.65969 8.06484 7.72538 8.23311 7.78374C8.85047 7.97456 9.47521 8.14454 10.0568 8.36967C10.5963 8.58021 10.7245 8.95192 10.4697 9.47128C10.0696 10.2675 9.64105 11.0772 9.21992 11.8661C8.34078 13.548 7.44798 15.2018 6.61091 16.8983C5.3295 19.5159 4.09752 22.1272 2.8519 24.7106C2.6255 25.2163 2.39911 25.7222 2.17269 26.2281Z" fill="black"/>
</svg>
